<svg viewBox="0 0 77 99" fill="none" xmlns="http://www.w3.org/2000/svg">
<g clip-path="url(#clip0_1935_1508)">
<mask id="mask0_1935_1508" style="mask-type:alpha" maskUnits="userSpaceOnUse" x="-7" y="-4" width="88" height="108">
<path d="M80.8433 -3.4082H-6.83203V103.391H80.8433V-3.4082Z" fill="white"/>
<path d="M75.7239 42.8079L75.7226 42.7875H75.7213C73.8504 29.2659 65.1822 17.1736 52.5088 10.9739C52.4552 10.9471 47.0756 8.1626 34.9981 2.80508C29.0429 0.163898 22.8954 0.219393 17.6867 2.95731C12.9582 5.4435 9.50869 9.94128 8.47166 14.9343L2.45801 39.2135C0.170591 48.1205 0.401872 57.5062 3.12507 66.2846L9.9838 88.4283C10.5617 90.2948 11.5254 92.0127 12.8099 93.4661C14.0943 94.9194 15.6694 96.0749 17.4289 96.8536C19.1883 97.6327 21.0911 98.0169 23.0087 97.9811C24.9263 97.9448 26.8139 97.4894 28.5441 96.6447L56.5513 82.9737C62.3311 80.1788 67.2245 75.782 70.6735 70.285C74.122 64.7885 75.9873 58.4131 76.0561 51.8866L76.0989 48.8543C76.1266 46.8321 76.0012 44.8103 75.7239 42.8079ZM69.0071 52.0006L49.607 66.2682C49.2675 66.5064 48.3872 67.1664 48.3872 67.1664C46.5833 68.4242 44.3702 68.915 42.218 68.5339C40.0656 68.1532 38.1436 66.9312 36.8602 65.1269L35.1863 62.7494L38.7562 51.7446L40.7349 45.6464C40.7375 45.6386 42.1281 41.348 42.1281 41.348C42.7296 39.5009 43.7001 37.8013 44.9784 36.3566C46.2562 34.912 47.8144 33.7537 49.5538 32.955L50.9065 32.3357C53.0085 31.3671 55.2977 30.8964 57.6029 30.9592C59.9086 31.0219 62.1702 31.6163 64.218 32.6979C67.7051 34.6263 71.8959 37.3851 72.4137 40.4791C72.6019 41.3583 72.7585 42.2455 72.884 43.1408C73.06 44.8353 72.794 46.5468 72.1135 48.1028C71.4331 49.6585 70.3616 51.0035 69.008 52.0006H69.0071ZM15.7169 27.6781L13.7658 14.2446C13.6296 13.2854 13.7089 12.3072 13.9976 11.384C14.2863 10.4607 14.7768 9.61642 15.4322 8.91504C16.5647 7.70389 18.1222 7.00113 19.7622 6.9612C23.2166 6.87906 26.6024 7.95321 29.4022 10.0195L34.3106 13.6624L37.3537 15.9221C40.3756 18.1653 41.6923 26.4124 40.6528 31.5909L40.6357 31.6997C40.6244 31.7802 39.62 39.7918 38.0288 44.7067L33.1249 59.8211L24.5921 47.7006C19.8561 41.5315 16.7878 34.6075 15.7171 27.6766L15.7169 27.6781ZM42.8172 19.9786L46.4185 22.6516C48.0848 23.8872 49.8372 24.9974 51.661 25.9735L55.6438 28.1041C53.6024 28.286 51.6056 28.8167 49.7364 29.6741L48.3824 30.2947C46.4306 31.1955 44.6682 32.474 43.1935 34.0593C43.3428 33.046 43.4354 32.3332 43.4618 32.122C44.1193 28.7949 43.9687 24.0009 42.8172 19.9786ZM26.2355 3.78383C28.8635 3.80865 31.4584 4.3858 33.8581 5.47933C45.841 10.7948 51.1596 13.5454 51.2426 13.5882C59.7014 17.7264 66.2421 24.6555 69.9195 32.8616C68.5555 31.8773 67.1328 30.9811 65.659 30.1783L65.6624 30.1707C65.6036 30.1386 65.5434 30.1118 65.4833 30.0811C65.216 29.9325 64.9491 29.7881 64.6848 29.6473L52.9881 23.392C51.2876 22.4812 49.6542 21.4458 48.1004 20.2941L35.9913 11.3041L33.8133 9.68799L31.0835 7.66107C28.5752 5.80876 25.655 4.62195 22.5856 4.20744C23.7825 3.92443 25.0069 3.78231 26.2355 3.78383ZM5.84976 65.4053C3.28866 57.1475 3.07257 48.3182 5.2265 39.94L11.1401 16.0564L12.8943 28.1321H12.8931L12.8957 28.1424L16.8215 55.1792C18.2767 65.2288 16.4927 75.4889 11.7381 84.414L5.84976 65.4053ZM27.3117 94.0138C25.9984 94.6561 24.5687 95.0135 23.1131 95.0627C21.6575 95.1123 20.2077 94.8525 18.8555 94.3004C17.5033 93.7484 16.2782 92.9157 15.2577 91.8556C14.2371 90.795 13.4434 89.5299 12.9269 88.1404C18.9475 78.1647 21.328 66.342 19.6497 54.7515L17.8911 42.6545C19.1842 45.036 20.6606 47.3086 22.3064 49.4517L34.5395 66.8271C35.5545 68.2589 36.8812 69.4308 38.4152 70.2505C39.9492 71.0702 41.6486 71.5157 43.38 71.5515C37.9178 77.0808 33.8815 83.9138 32.1397 90.8447L31.9077 91.7697L27.3117 94.0138ZM55.3189 80.3423L35.3179 90.1057C37.6577 82.3555 43.0333 74.8467 50.0314 69.5504L50.034 69.5491L70.6795 54.3664C71.6312 53.6646 72.4791 52.8268 73.1972 51.8789C73.1275 57.8554 71.4149 63.6925 68.2545 68.7246C65.0936 73.7568 60.6116 77.7818 55.3189 80.3423Z" fill="black"/>
</mask>
<g mask="url(#mask0_1935_1508)">
<path d="M75.7239 42.8079L75.7226 42.7875H75.7213C73.8504 29.2659 65.1822 17.1736 52.5088 10.9739C52.4552 10.9471 47.0756 8.1626 34.9981 2.80508C29.0429 0.163898 22.8954 0.219394 17.6867 2.95731C12.9583 5.4435 9.50869 9.94128 8.47166 14.9343L2.45801 39.2135C0.170591 48.1205 0.401872 57.5062 3.12507 66.2846L9.9838 88.4283C10.5617 90.2948 11.5254 92.0127 12.8099 93.4661C14.0943 94.9194 15.6694 96.0749 17.4289 96.8536C19.1883 97.6327 21.0911 98.0169 23.0087 97.981C24.9263 97.9448 26.8139 97.4894 28.5441 96.6447L56.5513 82.9737C62.3311 80.1788 67.2245 75.782 70.6735 70.285C74.122 64.7885 75.9873 58.4131 76.0561 51.8866L76.0989 48.8543C76.1266 46.8321 76.0012 44.8103 75.7239 42.8079ZM69.0071 52.0006L49.607 66.2682C49.2675 66.5064 48.3872 67.1664 48.3872 67.1664C46.5833 68.4242 44.3702 68.915 42.218 68.5339C40.0656 68.1532 38.1436 66.9312 36.8602 65.1269L35.1863 62.7494L38.7562 51.7446L40.7349 45.6464C40.7375 45.6386 42.1281 41.348 42.1281 41.348C42.7296 39.5009 43.7001 37.8013 44.9784 36.3566C46.2562 34.912 47.8144 33.7537 49.5538 32.955L50.9065 32.3357C53.0085 31.3671 55.2977 30.8964 57.6029 30.9592C59.9086 31.0219 62.1702 31.6163 64.218 32.6979C67.7051 34.6263 71.8959 37.3851 72.4138 40.4791C72.6019 41.3583 72.7585 42.2455 72.884 43.1408C73.06 44.8353 72.794 46.5468 72.1135 48.1028C71.4331 49.6585 70.3607 51.0035 69.0071 52.0006ZM15.7169 27.6781L13.7658 14.2446C13.6296 13.2854 13.7089 12.3072 13.9976 11.384C14.2863 10.4607 14.7768 9.61642 15.4322 8.91504C16.5647 7.70389 18.1222 7.00113 19.7622 6.9612C23.2166 6.87906 26.6024 7.95321 29.4022 10.0195L34.3106 13.6624L37.3537 15.9221C40.3756 18.1653 41.6923 26.4124 40.6528 31.591L40.6357 31.6997C40.6244 31.7802 39.62 39.7918 38.0288 44.7067L33.1249 59.8211L24.5921 47.7006C19.8562 41.5315 16.7878 34.6075 15.7171 27.6766L15.7169 27.6781ZM42.8172 19.9786L46.4185 22.6516C48.0848 23.8872 49.8372 24.9974 51.661 25.9735L55.6438 28.1041C53.6024 28.286 51.6056 28.8167 49.7364 29.6741L48.3824 30.2947C46.4306 31.1955 44.6682 32.474 43.1935 34.0593C43.3428 33.046 43.4354 32.3332 43.4618 32.122C44.1193 28.7949 43.9687 24.0009 42.8172 19.9786ZM26.2355 3.78383C28.8635 3.80865 31.4584 4.3858 33.8581 5.47933C45.841 10.7948 51.1596 13.5454 51.2426 13.5881C59.7014 17.7264 66.2421 24.6555 69.9195 32.8616C68.5555 31.8773 67.1328 30.9811 65.659 30.1783L65.6624 30.1707C65.6036 30.1386 65.5435 30.1118 65.4833 30.0811C65.216 29.9325 64.9491 29.7881 64.6848 29.6473L52.9881 23.392C51.2876 22.4812 49.6542 21.4458 48.1004 20.2941L35.9913 11.3041L33.8133 9.68799L31.0835 7.66107C28.5752 5.80876 25.655 4.62195 22.5856 4.20744C23.7825 3.92443 25.0069 3.78231 26.2355 3.78383ZM5.84977 65.4053C3.28866 57.1475 3.07257 48.3182 5.2265 39.94L11.1401 16.0564L12.8943 28.1321H12.8931L12.8957 28.1424L16.8215 55.1792C18.2767 65.2288 16.4927 75.4889 11.7381 84.414L5.84977 65.4053ZM27.3117 94.0138C25.9984 94.6561 24.5687 95.0135 23.1131 95.0627C21.6575 95.1123 20.2077 94.8525 18.8555 94.3004C17.5033 93.7484 16.2782 92.9157 15.2577 91.8556C14.2371 90.795 13.4434 89.5299 12.9269 88.1404C18.9475 78.1647 21.328 66.342 19.6497 54.7515L17.8911 42.6545C19.1842 45.036 20.6606 47.3086 22.3064 49.4517L34.5395 66.8271C35.5545 68.2589 36.8812 69.4308 38.4152 70.2505C39.9492 71.0702 41.6486 71.5157 43.38 71.5515C37.9178 77.0809 33.8815 83.9138 32.1397 90.8447L31.9077 91.7697L27.3117 94.0138ZM55.3189 80.3423L35.3179 90.1057C37.6577 82.3555 43.0333 74.8467 50.0314 69.5504L50.034 69.5491L70.6795 54.3664C71.6312 53.6646 72.4791 52.8268 73.1972 51.8789C73.1275 57.8554 71.4149 63.6925 68.2545 68.7246C65.0936 73.7568 60.6116 77.7818 55.3189 80.3423Z" fill="#FCFCFC"/>
<path d="M75.7239 42.8079L75.7226 42.7875H75.7213C73.8504 29.2659 65.1822 17.1736 52.5088 10.9739C52.4552 10.9471 47.0756 8.1626 34.9981 2.80508C29.0429 0.163898 22.8954 0.219394 17.6867 2.95731C12.9583 5.4435 9.50869 9.94128 8.47166 14.9343L2.45801 39.2135C0.170591 48.1205 0.401872 57.5062 3.12507 66.2846L9.9838 88.4283C10.5617 90.2948 11.5254 92.0127 12.8099 93.4661C14.0943 94.9194 15.6694 96.0749 17.4289 96.8536C19.1883 97.6327 21.0911 98.0169 23.0087 97.981C24.9263 97.9448 26.8139 97.4894 28.5441 96.6447L56.5513 82.9737C62.3311 80.1788 67.2245 75.782 70.6735 70.285C74.122 64.7885 75.9873 58.4131 76.0561 51.8866L76.0989 48.8543C76.1266 46.8321 76.0012 44.8103 75.7239 42.8079ZM69.0071 52.0006L49.607 66.2682C49.2675 66.5064 48.3872 67.1664 48.3872 67.1664C46.5833 68.4242 44.3702 68.915 42.218 68.5339C40.0656 68.1532 38.1436 66.9312 36.8602 65.1269L35.1863 62.7494L38.7562 51.7446L40.7349 45.6464C40.7375 45.6386 42.1281 41.348 42.1281 41.348C42.7296 39.5009 43.7001 37.8013 44.9784 36.3566C46.2562 34.912 47.8144 33.7537 49.5538 32.955L50.9065 32.3357C53.0085 31.3671 55.2977 30.8964 57.6029 30.9592C59.9086 31.0219 62.1702 31.6163 64.218 32.6979C67.7051 34.6263 71.8959 37.3851 72.4138 40.4791C72.6019 41.3583 72.7585 42.2455 72.884 43.1408C73.06 44.8353 72.794 46.5468 72.1135 48.1028C71.4331 49.6585 70.3607 51.0035 69.0071 52.0006ZM15.7169 27.6781L13.7658 14.2446C13.6296 13.2854 13.7089 12.3072 13.9976 11.384C14.2863 10.4607 14.7768 9.61642 15.4322 8.91504C16.5647 7.70389 18.1222 7.00113 19.7622 6.9612C23.2166 6.87906 26.6024 7.95321 29.4022 10.0195L34.3106 13.6624L37.3537 15.9221C40.3756 18.1653 41.6923 26.4124 40.6528 31.591L40.6357 31.6997C40.6244 31.7802 39.62 39.7918 38.0288 44.7067L33.1249 59.8211L24.5921 47.7006C19.8562 41.5315 16.7878 34.6075 15.7171 27.6766L15.7169 27.6781ZM42.8172 19.9786L46.4185 22.6516C48.0848 23.8872 49.8372 24.9974 51.661 25.9735L55.6438 28.1041C53.6024 28.286 51.6056 28.8167 49.7364 29.6741L48.3824 30.2947C46.4306 31.1955 44.6682 32.474 43.1935 34.0593C43.3428 33.046 43.4354 32.3332 43.4618 32.122C44.1193 28.7949 43.9687 24.0009 42.8172 19.9786ZM26.2355 3.78383C28.8635 3.80865 31.4584 4.3858 33.8581 5.47933C45.841 10.7948 51.1596 13.5454 51.2426 13.5881C59.7014 17.7264 66.2421 24.6555 69.9195 32.8616C68.5555 31.8773 67.1328 30.9811 65.659 30.1783L65.6624 30.1707C65.6036 30.1386 65.5435 30.1118 65.4833 30.0811C65.216 29.9325 64.9491 29.7881 64.6848 29.6473L52.9881 23.392C51.2876 22.4812 49.6542 21.4458 48.1004 20.2941L35.9913 11.3041L33.8133 9.68799L31.0835 7.66107C28.5752 5.80876 25.655 4.62195 22.5856 4.20744C23.7825 3.92443 25.0069 3.78231 26.2355 3.78383ZM5.84977 65.4053C3.28866 57.1475 3.07257 48.3182 5.2265 39.94L11.1401 16.0564L12.8943 28.1321H12.8931L12.8957 28.1424L16.8215 55.1792C18.2767 65.2288 16.4927 75.4889 11.7381 84.414L5.84977 65.4053ZM27.3117 94.0138C25.9984 94.6561 24.5687 95.0135 23.1131 95.0627C21.6575 95.1123 20.2077 94.8525 18.8555 94.3004C17.5033 93.7484 16.2782 92.9157 15.2577 91.8556C14.2371 90.795 13.4434 89.5299 12.9269 88.1404C18.9475 78.1647 21.328 66.342 19.6497 54.7515L17.8911 42.6545C19.1842 45.036 20.6606 47.3086 22.3064 49.4517L34.5395 66.8271C35.5545 68.2589 36.8812 69.4308 38.4152 70.2505C39.9492 71.0702 41.6486 71.5157 43.38 71.5515C37.9178 77.0809 33.8815 83.9138 32.1397 90.8447L31.9077 91.7697L27.3117 94.0138ZM55.3189 80.3423L35.3179 90.1057C37.6577 82.3555 43.0333 74.8467 50.0314 69.5504L50.034 69.5491L70.6795 54.3664C71.6312 53.6646 72.4791 52.8268 73.1972 51.8789C73.1275 57.8554 71.4149 63.6925 68.2545 68.7246C65.0936 73.7568 60.6116 77.7818 55.3189 80.3423Z" stroke="#FCFCFC" stroke-width="0.537209"/>
</g>
</g>
<defs>
<clipPath id="clip0_1935_1508">
<rect width="77" height="98.8465" fill="white"/>
</clipPath>
</defs>
</svg>
